<?xml version="1.0" standalone="no"?><!DOCTYPE svg PUBLIC "-//W3C//DTD SVG 1.1//EN" "http://www.w3.org/Graphics/SVG/1.1/DTD/svg11.dtd"><svg t="1547463636937" class="icon" style="" viewBox="0 0 1515 1024" version="1.1" xmlns="http://www.w3.org/2000/svg" p-id="1977" xmlns:xlink="http://www.w3.org/1999/xlink" width="189.375" height="128"><defs><style type="text/css"></style></defs><path d="M355.19474 402.291726c-30.481534 0-56.383123 10.660822-77.718795 31.996493C256.147288 455.616877 245.479452 481.518466 245.479452 512c0 30.474521 10.667836 56.383123 32.003507 77.711781s47.244274 31.996493 77.718795 31.996493c30.474521 0 56.37611-10.667836 77.711781-31.996493 21.328658-21.328658 31.996493-47.23726 31.996493-77.711781 0-30.481534-10.667836-56.383123-32.003507-77.711781C411.577863 412.959562 385.676274 402.291726 355.19474 402.291726z" p-id="1978" fill="#8a8a8a"></path><path d="M355.201753 109.715288c-30.481534 0-56.383123 10.667836-77.718795 31.996493-21.328658 21.335671-31.996493 47.23726-31.996493 77.711781 0 30.481534 10.660822 56.383123 31.996493 77.718795 21.335671 21.328658 47.244274 31.996493 77.718795 31.996493 30.474521 0 56.37611-10.667836 77.711781-31.996493 21.328658-21.335671 31.996493-47.23726 31.996493-77.718795 0-30.474521-10.667836-56.37611-31.996493-77.711781C411.584877 120.383123 385.683288 109.715288 355.201753 109.715288z" p-id="1979" fill="#8a8a8a"></path><path d="M355.201753 694.861151c-30.481534 0-56.390137 10.660822-77.718795 31.996493s-31.996493 47.23726-31.996493 77.711781c0 30.488548 10.660822 56.383123 31.996493 77.718795 21.335671 21.328658 47.244274 31.996493 77.718795 31.996493 30.474521 0 56.37611-10.667836 77.711781-31.996493 21.328658-21.335671 31.996493-47.230247 31.996493-77.718795 0-30.474521-10.667836-56.383123-31.996493-77.711781S385.683288 694.861151 355.201753 694.861151z" p-id="1980" fill="#8a8a8a"></path><path d="M1264.057863 151.713315c-3.633096-3.612055-7.904438-5.421589-12.863123-5.421589L556.333589 146.291726c-4.951671 0-9.237041 1.802521-12.85611 5.421589-3.619068 3.626082-5.428603 7.904438-5.428603 12.85611l0 109.722301c0 4.951671 1.809534 9.230027 5.428603 12.85611 3.619068 3.612055 7.904438 5.421589 12.85611 5.421589l694.861151 0c4.958685 0 9.237041-1.802521 12.863123-5.421589 3.619068-3.626082 5.421589-7.904438 5.421589-12.85611L1269.479452 164.569425C1269.479452 159.617753 1267.669918 155.332384 1264.057863 151.713315z" p-id="1981" fill="#8a8a8a"></path><path d="M1251.19474 438.861151 556.333589 438.861151c-4.951671 0-9.237041 1.802521-12.85611 5.428603-3.619068 3.619068-5.428603 7.904438-5.428603 12.85611l0 109.722301c0 4.944658 1.809534 9.230027 5.428603 12.849096 3.619068 3.626082 7.904438 5.428603 12.85611 5.428603l694.861151 0c4.958685 0 9.237041-1.802521 12.863123-5.428603 3.619068-3.619068 5.421589-7.904438 5.421589-12.849096L1269.479452 457.145863c0-4.951671-1.809534-9.244055-5.421589-12.85611C1260.424767 440.670685 1256.153425 438.861151 1251.19474 438.861151z" p-id="1982" fill="#8a8a8a"></path><path d="M1251.19474 731.430575 556.333589 731.430575c-4.951671 0-9.237041 1.809534-12.85611 5.428603-3.619068 3.619068-5.428603 7.904438-5.428603 12.849096l0 109.722301c0 4.958685 1.809534 9.237041 5.428603 12.863123 3.619068 3.612055 7.904438 5.414575 12.85611 5.414575l694.861151 0c4.958685 0 9.237041-1.802521 12.863123-5.414575 3.619068-3.626082 5.421589-7.904438 5.421589-12.863123l0-109.722301c0-4.944658-1.809534-9.237041-5.421589-12.849096C1260.424767 733.247123 1256.153425 731.430575 1251.19474 731.430575z" p-id="1983" fill="#8a8a8a"></path></svg>