<?xml version="1.0" standalone="no"?><!DOCTYPE svg PUBLIC "-//W3C//DTD SVG 1.1//EN" "http://www.w3.org/Graphics/SVG/1.1/DTD/svg11.dtd"><svg t="1547114982849" class="icon" style="" viewBox="0 0 1171 1024" version="1.1" xmlns="http://www.w3.org/2000/svg" p-id="3838" xmlns:xlink="http://www.w3.org/1999/xlink" width="45.7421875" height="40"><defs><style type="text/css"></style></defs><path d="M250.84 190.572c0 33.263-27.007 60.268-60.268 60.268-33.311 0-60.268-26.975-60.268-60.268 0-33.293 26.956-60.268 60.268-60.268 33.263 0 60.268 27.007 60.268 60.268v0zM291.018 190.572c0-55.452-44.993-100.447-100.447-100.447-55.508 0-100.447 44.969-100.447 100.447 0 55.477 44.938 100.447 100.447 100.447 55.452 0 100.447-44.993 100.447-100.447v0z" p-id="3839" fill="#2FC995"></path><path d="M434.427 207.755h599.906c11.094 0 20.089-8.994 20.089-20.089s-8.994-20.089-20.089-20.089h-599.906c-11.094 0-20.089 8.994-20.089 20.089s8.994 20.089 20.089 20.089v0z" p-id="3840" fill="#2FC995"></path><path d="M250.84 512c0 33.262-27.007 60.268-60.268 60.268-33.311 0-60.268-26.975-60.268-60.268 0-33.293 26.956-60.268 60.268-60.268 33.263 0 60.268 27.007 60.268 60.268v0zM291.018 512c0-55.452-44.993-100.447-100.447-100.447-55.508 0-100.447 44.969-100.447 100.447 0 55.477 44.938 100.447 100.447 100.447 55.452 0 100.447-44.993 100.447-100.447v0z" p-id="3841" fill="#2FC995"></path><path d="M434.427 529.184h599.906c11.094 0 20.089-8.994 20.089-20.089s-8.994-20.089-20.089-20.089h-599.906c-11.094 0-20.089 8.994-20.089 20.089s8.994 20.089 20.089 20.089v0z" p-id="3842" fill="#2FC995"></path><path d="M250.84 833.428c0 33.262-27.007 60.268-60.268 60.268-33.311 0-60.268-26.975-60.268-60.268 0-33.293 26.956-60.268 60.268-60.268 33.263 0 60.268 27.007 60.268 60.268v0zM291.018 833.428c0-55.452-44.993-100.447-100.447-100.447-55.508 0-100.447 44.969-100.447 100.447 0 55.477 44.938 100.447 100.447 100.447 55.452 0 100.447-44.993 100.447-100.447v0z" p-id="3843" fill="#2FC995"></path><path d="M434.427 850.576h599.906c11.094 0 20.089-8.994 20.089-20.089s-8.994-20.089-20.089-20.089h-599.906c-11.094 0-20.089 8.994-20.089 20.089s8.994 20.089 20.089 20.089v0z" p-id="3844" fill="#2FC995"></path></svg>