<svg xmlns="http://www.w3.org/2000/svg" viewBox="0 0 40 40"><defs><style>.cls-1{fill:none;}.cls-2{fill:#eb7500;}.cls-2,.cls-3,.cls-4{fill-rule:evenodd;}.cls-3{fill:#ae4283;}.cls-4{fill:#2a87cd;}</style></defs><title>logo</title><g><g id="logo"><rect class="cls-1" width="40" height="40"/><path class="cls-2" d="M20.65,3.91a2.2,2.2,0,0,0,.47,2.19A7.2,7.2,0,0,0,18.8,7,7.75,7.75,0,0,0,17.54,18.8c2.7,2.71,6.69,1.49,8.45.34,2.55-1.08,4.88-8-1.52-10.11,0,0-6.78-.58-4.62,6.07,1,2.43,4.65,1.44,4.5-.18A2.05,2.05,0,0,0,25,12.5c2.44.87,1.93,3.76,0,5.2a4.91,4.91,0,0,1-7.68-2.85S16,7.36,23.79,7s9.93,12.14.9,15a10.71,10.71,0,0,1-7.19-.52c-4.05-1.85-5.77-8-3.32-12.7A9.66,9.66,0,0,1,20.65,3.91Z"/><path class="cls-3" d="M23,2.76A1.54,1.54,0,1,1,21.43,4.3,1.54,1.54,0,0,1,23,2.76Z"/><path class="cls-3" d="M22.72,11.59a1.54,1.54,0,1,1-1.54,1.54A1.54,1.54,0,0,1,22.72,11.59Z"/><polygon class="cls-4" points="14.49 24.21 15.54 29.63 16.54 24.21 19.29 24.21 17.15 32.95 14.3 32.95 13.31 27.87 13.26 27.87 12.26 32.95 9.46 32.95 7.27 24.21 10.08 24.21 11.03 29.63 11.07 29.63 12.12 24.21 14.49 24.21"/><path class="cls-4" d="M26.27,29.87q-.16-3-3.52-3.19-3.36.15-3.51,3.19.15,3,3.51,3.09,3.36-.1,3.52-3.09Zm-4.94,0c0-1.35.48-2,1.42-2s1.51.67,1.47,2-.49,2-1.47,2S21.33,31.18,21.33,29.87Z"/><path class="cls-4" d="M27.17,26.83a6,6,0,0,0,.07.8V33h2.32V29.72a3.34,3.34,0,0,1,.31-.9A2.39,2.39,0,0,1,31,28.39h1V26.78A2.59,2.59,0,0,0,29.38,28h-.06V26.83Z"/><path class="cls-4" d="M34.91,29.82c0-1.36.46-2.05,1.47-2.05s1.36.75,1.43,2.05-.55,1.93-1.43,2-1.51-.66-1.47-2Zm2.9-2.38h0A2.44,2.44,0,0,0,36,26.59c-2,.09-3,1.17-3.16,3.23.14,2,1.13,3.07,3,3.14a2.22,2.22,0,0,0,2.06-1h0a2.08,2.08,0,0,0,0,.43v.43h2c0-.38,0-.79,0-1.23V24.07h-2Z"/><path class="cls-2" d="M2.8,30.94c6.3-.39,2.45-5.69,0,0Zm-.2.31c-.72,1.18-1.17,2.73-.27,3.59C3.53,36,5.44,33.74,5.48,34a3.12,3.12,0,0,1-3.07,2.11C.16,36.11-.35,33.65,1,30.94c1.91-3.13,5-3.49,5.67-2.83C8.88,30.41,3.68,31.28,2.6,31.25Z"/><path class="cls-4" d="M15.22,37.7c0,.06,0,.11,0,.14a.2.2,0,0,0,0,.07.16.16,0,0,0,.09.15.8.8,0,0,0,.33,0v.06H14.21v-.06h.06A.68.68,0,0,0,14.6,38a.6.6,0,0,0,.16-.29l.74-2.47h-.35a.9.9,0,0,0-.55.16.93.93,0,0,0-.33.47H14.2l.24-.77H17l-.21.77h-.06a1.28,1.28,0,0,0,0-.17.45.45,0,0,0,0-.11.34.34,0,0,0-.11-.27.7.7,0,0,0-.37-.08h-.38l-.72,2.42Zm1.61-.56a1.44,1.44,0,0,0,.77-.25.6.6,0,0,0,.31-.48.16.16,0,0,0-.07-.15.22.22,0,0,0-.17,0,.67.67,0,0,0-.48.25,1.63,1.63,0,0,0-.36.68Zm1.09.56a1.51,1.51,0,0,1-.34.24.88.88,0,0,1-.33.08.42.42,0,0,1-.34-.15.58.58,0,0,1-.13-.41v-.13l0-.09a2.33,2.33,0,0,0,1-.26.61.61,0,0,0,.37-.53.28.28,0,0,0-.11-.25.43.43,0,0,0-.31-.1,1,1,0,0,0-.44.1,1.41,1.41,0,0,0-.41.29,1.58,1.58,0,0,0-.39.51,1.23,1.23,0,0,0-.13.55.71.71,0,0,0,.17.49.65.65,0,0,0,.48.18,1.07,1.07,0,0,0,.49-.12,1.58,1.58,0,0,0,.44-.35l-.06,0Zm2.13,0,.06,0a1.56,1.56,0,0,1-.41.37,1,1,0,0,1-.48.12.66.66,0,0,1-.48-.19.67.67,0,0,1-.18-.49,1.43,1.43,0,0,1,.13-.56,1.52,1.52,0,0,1,.35-.49,1.36,1.36,0,0,1,.4-.29,1.07,1.07,0,0,1,.42-.1.56.56,0,0,1,.35.11.29.29,0,0,1,.13.26.21.21,0,0,1-.05.16.25.25,0,0,1-.16,0,.18.18,0,0,1-.13,0,.12.12,0,0,1-.05-.1.17.17,0,0,1,.06-.12.18.18,0,0,0,.06-.1.11.11,0,0,0-.05-.09.33.33,0,0,0-.15,0,.62.62,0,0,0-.32.09,1.13,1.13,0,0,0-.29.29,1.66,1.66,0,0,0-.32.93.56.56,0,0,0,.13.38.42.42,0,0,0,.33.14.68.68,0,0,0,.31-.08,1.23,1.23,0,0,0,.34-.26Zm.59.48.75-2.54,0-.05a1,1,0,0,0,.05-.21.13.13,0,0,0-.06-.11.49.49,0,0,0-.2,0h0v-.06l.38-.05L21.9,35l-.62,2.07a4.45,4.45,0,0,1,.65-.77.77.77,0,0,1,.5-.24.3.3,0,0,1,.2.06.24.24,0,0,1,.06.17.86.86,0,0,1,0,.15c0,.06,0,.12-.05.2l-.3,1s0,0,0,0a.58.58,0,0,0,0,.2.08.08,0,0,0,0,.07l.05,0a.24.24,0,0,0,.15-.06l.21-.24.07,0a1.82,1.82,0,0,1-.35.37.48.48,0,0,1-.29.11.21.21,0,0,1-.16-.06.17.17,0,0,1-.05-.15.66.66,0,0,1,0-.13c0-.06,0-.12,0-.18l.3-1c0-.07,0-.12.05-.17a.57.57,0,0,0,0-.12.11.11,0,0,0-.12-.12c-.17,0-.39.18-.66.55A4,4,0,0,0,21,38.17Zm2.6,0,.45-1.48.06-.18a.25.25,0,0,0,0-.08.11.11,0,0,0-.06-.1.49.49,0,0,0-.2,0h0v-.07a4.28,4.28,0,0,0,.74-.13l-.31,1a3.87,3.87,0,0,1,.63-.76A.78.78,0,0,1,25,36.1a.28.28,0,0,1,.2.06.21.21,0,0,1,.07.17,1,1,0,0,1,0,.15,1,1,0,0,1-.05.2l-.29,1,0,0a.58.58,0,0,0,0,.2.14.14,0,0,0,0,.07L25,38a.24.24,0,0,0,.15-.06,1.88,1.88,0,0,0,.22-.24l.06,0a1.82,1.82,0,0,1-.34.37.53.53,0,0,1-.3.11.21.21,0,0,1-.16-.06.21.21,0,0,1,0-.15.83.83,0,0,1,0-.13c0-.06,0-.12,0-.18l.31-1c0-.07,0-.12,0-.17a.57.57,0,0,0,0-.12.2.2,0,0,0,0-.09.12.12,0,0,0-.09,0c-.18,0-.4.18-.67.55a3.76,3.76,0,0,0-.6,1.31Zm3.91-2a.53.53,0,0,0-.31.11,1.16,1.16,0,0,0-.29.32,2,2,0,0,0-.24.53,1.53,1.53,0,0,0-.1.52.56.56,0,0,0,.1.33.34.34,0,0,0,.27.12.52.52,0,0,0,.31-.1,1.3,1.3,0,0,0,.28-.32,2.35,2.35,0,0,0,.25-.53,1.89,1.89,0,0,0,.09-.53.47.47,0,0,0-.1-.32.32.32,0,0,0-.26-.13Zm0-.09a.7.7,0,0,1,.73.74,1.19,1.19,0,0,1-.13.54,1.52,1.52,0,0,1-.35.49,1.19,1.19,0,0,1-.38.25,1,1,0,0,1-.41.09.74.74,0,0,1-.53-.2.75.75,0,0,1-.2-.54,1.42,1.42,0,0,1,.13-.54,1.88,1.88,0,0,1,.36-.49,1.34,1.34,0,0,1,.37-.25,1,1,0,0,1,.41-.09ZM29,35.63v0a1.36,1.36,0,0,0,0-.22.11.11,0,0,0-.06-.11.46.46,0,0,0-.2,0h0v-.06l.38-.05.36-.08-.78,2.63a.35.35,0,0,0,0,.06.54.54,0,0,0,0,.18.08.08,0,0,0,0,.07l.05,0a.24.24,0,0,0,.15-.06,1.36,1.36,0,0,0,.21-.24l.07,0a1.82,1.82,0,0,1-.35.37.48.48,0,0,1-.29.11.21.21,0,0,1-.16-.06.21.21,0,0,1-.05-.15.37.37,0,0,1,0-.13,1.16,1.16,0,0,1,0-.18L29,35.63Zm1.95.56a.56.56,0,0,0-.32.11,1.14,1.14,0,0,0-.28.32,2.37,2.37,0,0,0-.25.53,1.78,1.78,0,0,0-.09.52.5.5,0,0,0,.1.33.32.32,0,0,0,.26.12.52.52,0,0,0,.31-.1A1.13,1.13,0,0,0,31,37.7a2.37,2.37,0,0,0,.26-.53,1.89,1.89,0,0,0,.09-.53.47.47,0,0,0-.1-.32.35.35,0,0,0-.26-.13Zm0-.09a.72.72,0,0,1,.54.21.72.72,0,0,1,.2.53,1.19,1.19,0,0,1-.13.54,1.69,1.69,0,0,1-.35.49,1.32,1.32,0,0,1-.38.25,1,1,0,0,1-.41.09.72.72,0,0,1-.53-.2.75.75,0,0,1-.2-.54,1.25,1.25,0,0,1,.13-.54,1.64,1.64,0,0,1,.35-.49,1.39,1.39,0,0,1,.38-.25,1,1,0,0,1,.4-.09Zm1.6,2a1,1,0,0,0-.35.24.46.46,0,0,0-.11.29.37.37,0,0,0,.17.32.85.85,0,0,0,.48.12.93.93,0,0,0,.51-.14.39.39,0,0,0,.21-.33.31.31,0,0,0-.18-.28,2.79,2.79,0,0,0-.73-.22Zm.21-.68a.55.55,0,0,1-.32-.2.5.5,0,0,1-.12-.34.66.66,0,0,1,.27-.53,1,1,0,0,1,.65-.23.76.76,0,0,1,.21,0,1,1,0,0,1,.22.09h.54l0,.2h-.35s0,.07,0,.11a.37.37,0,0,1,0,.11.7.7,0,0,1-.26.56,1,1,0,0,1-.66.22h0l-.27.13a.17.17,0,0,0-.08.12c0,.06.12.12.35.17l.18,0a1.12,1.12,0,0,1,.49.22.42.42,0,0,1,.14.35.56.56,0,0,1-.29.5,1.3,1.3,0,0,1-.75.19,1.11,1.11,0,0,1-.6-.14.4.4,0,0,1-.24-.35.44.44,0,0,1,.15-.32,1.53,1.53,0,0,1,.47-.28.55.55,0,0,1-.16-.1.24.24,0,0,1-.05-.14.26.26,0,0,1,.12-.21,1.33,1.33,0,0,1,.4-.2Zm.21-.06a.49.49,0,0,0,.4-.25,1,1,0,0,0,.17-.59.34.34,0,0,0-.08-.23.29.29,0,0,0-.22-.08.52.52,0,0,0-.42.24,1,1,0,0,0-.17.57.33.33,0,0,0,.09.25.29.29,0,0,0,.23.09Zm2.1-1.8a.2.2,0,0,1,.06-.14.22.22,0,0,1,.3,0,.21.21,0,0,1,.07.14.17.17,0,0,1-.07.13.2.2,0,0,1-.15.06.24.24,0,0,1-.15-.06.16.16,0,0,1-.06-.13Zm-.22,1.15,0-.16a.44.44,0,0,0,0-.1.1.1,0,0,0-.06-.1.49.49,0,0,0-.2,0h0v-.07a2.35,2.35,0,0,0,.37,0,2.7,2.7,0,0,0,.39-.08l-.48,1.57a1.55,1.55,0,0,1,0,.15.34.34,0,0,0,0,.09.08.08,0,0,0,0,.07l0,0a.24.24,0,0,0,.15-.06,3.11,3.11,0,0,0,.22-.24l.06,0a1.82,1.82,0,0,1-.35.37.53.53,0,0,1-.3.11.21.21,0,0,1-.16-.06.19.19,0,0,1-.06-.15.83.83,0,0,1,0-.13,1.21,1.21,0,0,1,.05-.18l.31-1Zm1.4.45a1.41,1.41,0,0,0,.77-.25.58.58,0,0,0,.31-.48.18.18,0,0,0-.06-.15.24.24,0,0,0-.18,0,.67.67,0,0,0-.48.25,1.9,1.9,0,0,0-.36.68Zm1.09.56.06,0a1.45,1.45,0,0,1-.44.35,1,1,0,0,1-.48.12A.65.65,0,0,1,36,38a.67.67,0,0,1-.18-.49,1.23,1.23,0,0,1,.13-.55,1.58,1.58,0,0,1,.39-.51,1.33,1.33,0,0,1,.42-.29,1,1,0,0,1,.44-.1.4.4,0,0,1,.3.1.29.29,0,0,1,.12.25.62.62,0,0,1-.38.53,2.29,2.29,0,0,1-1,.26.29.29,0,0,0,0,.09.53.53,0,0,0,0,.13.58.58,0,0,0,.13.41.42.42,0,0,0,.34.15.8.8,0,0,0,.33-.08,1.51,1.51,0,0,0,.34-.24Zm.55.5.12-.67h.06a.74.74,0,0,0,.16.43.46.46,0,0,0,.65,0,.38.38,0,0,0,.11-.28.88.88,0,0,0-.26-.48l0,0,0,0a1,1,0,0,1-.31-.59.44.44,0,0,1,.16-.35.64.64,0,0,1,.42-.14,1,1,0,0,1,.28,0,.57.57,0,0,0,.17.05l.09,0a.12.12,0,0,0,0-.07h.05l-.08.63h-.06v-.06a.47.47,0,0,0-.13-.34A.45.45,0,0,0,39,36.2a.33.33,0,0,0-.23.07.24.24,0,0,0-.09.2.76.76,0,0,0,.26.45l0,0a2.2,2.2,0,0,1,.31.39.67.67,0,0,1,.08.3.53.53,0,0,1-.2.42.82.82,0,0,1-.53.17.83.83,0,0,1-.28-.06l-.2,0a.12.12,0,0,0-.08,0s-.05,0-.06.07Z"/></g></g></svg>