<svg id="图层_1" data-name="图层 1" xmlns="http://www.w3.org/2000/svg" viewBox="0 0 16 14"><title>展开</title><path d="M967.41,533.94a.59.59,0,0,1-.55.62H952.12a.63.63,0,0,1,0-1.25h14.74a.6.6,0,0,1,.55.63Zm0,0" transform="translate(-951.56 -533.31)"/><path d="M967.56,540.39a.6.6,0,0,1-.55.63H952.27a.63.63,0,0,1,0-1.25H967a.59.59,0,0,1,.55.62Zm0,0" transform="translate(-951.56 -533.31)"/><path d="M967.56,546.68a.6.6,0,0,1-.55.63H952.27a.64.64,0,0,1,0-1.26H967a.6.6,0,0,1,.55.63Zm0,0" transform="translate(-951.56 -533.31)"/></svg>